<?xml version="1.0" encoding="UTF-8"?>
<svg version="1.1" xmlns="http://www.w3.org/2000/svg" width="1636" height="1831">
<path d="M0 0 C2.48168945 1.17651367 2.48168945 1.17651367 5.11328125 2.66796875 C6.10134766 3.22419922 7.08941406 3.78042969 8.10742188 4.35351562 C9.16509766 4.95873047 10.22277344 5.56394531 11.3125 6.1875 C12.42044922 6.81462891 13.52839844 7.44175781 14.66992188 8.08789062 C23.14764164 12.90138891 31.56846038 17.81166084 39.97583008 22.74682617 C48.13846468 27.52828298 56.38281993 32.15258169 64.64892578 36.75219727 C71.77628533 40.72815783 78.83932954 44.80174128 85.875 48.9375 C95.55081338 54.62145144 105.32556568 60.10790608 115.14624023 65.53710938 C124.53786411 70.73152896 133.86511446 76.03018725 143.17089844 81.37646484 C148.63001183 84.50928363 154.09696564 87.62840166 159.5625 90.75 C161.95580318 92.11705798 164.34903021 93.48424916 166.7421875 94.8515625 C167.64040222 95.36474281 167.64040222 95.36474281 168.5567627 95.88829041 C172.15860897 97.94655309 175.75916786 100.00704705 179.35865784 102.06942749 C182.30118101 103.75535957 185.24420472 105.44041628 188.1875 107.125 C188.76787018 107.45719543 189.34824036 107.78939087 189.94619751 108.13165283 C198.18656999 112.84596644 206.45732353 117.50332054 214.75 122.125 C223.89732506 127.22374537 232.95855323 132.45444812 241.99023438 137.75488281 C250.05961132 142.47912665 258.20235203 147.06184178 266.36987305 151.61376953 C274.21097188 155.98751785 282.02015943 160.41512992 289.8125 164.875 C290.39395782 165.20769897 290.97541565 165.54039795 291.57449341 165.88317871 C296.31114735 168.59376792 301.04617902 171.30718587 305.78112793 174.02075195 C309.9158273 176.39016007 314.05124243 178.75831304 318.1875 181.125 C318.76823273 181.45737671 319.34896545 181.78975342 319.94729614 182.13220215 C328.18729618 186.84634403 336.45764827 191.50357591 344.75 196.125 C353.84933297 201.19625465 362.85966632 206.40297153 371.84082031 211.68017578 C379.33300958 216.06629441 386.8990924 220.30553732 394.5 224.5 C404.10813142 229.80212322 413.62178932 235.23960865 423.08203125 240.80078125 C430.17161027 244.95900197 437.31803493 249.00370967 444.5 253 C452.68191157 257.55269467 460.80306535 262.19259696 468.875 266.9375 C478.55081338 272.62145144 488.32556568 278.10790608 498.14624023 283.53710938 C507.53786411 288.73152896 516.86511446 294.03018725 526.17089844 299.37646484 C531.63001183 302.50928363 537.09696564 305.62840166 542.5625 308.75 C544.95580318 310.11705798 547.34903021 311.48424916 549.7421875 312.8515625 C550.34099731 313.19368271 550.93980713 313.53580292 551.5567627 313.88829041 C555.15860897 315.94655309 558.75916786 318.00704705 562.35865784 320.06942749 C565.30118101 321.75535957 568.24420472 323.44041628 571.1875 325.125 C571.76787018 325.45719543 572.34824036 325.78939087 572.94619751 326.13165283 C581.18656938 330.8459661 589.45729219 335.50337746 597.75 340.125 C606.84933297 345.19625465 615.85966632 350.40297153 624.84082031 355.68017578 C632.33300958 360.06629441 639.8990924 364.30553732 647.5 368.5 C657.10813142 373.80212322 666.62178932 379.23960865 676.08203125 384.80078125 C683.17161027 388.95900197 690.31803493 393.00370967 697.5 397 C705.68190487 401.55269094 713.80322163 406.19233739 721.875 410.9375 C731.59547551 416.65149253 741.41456135 422.16991056 751.30224609 427.58764648 C753.36512181 428.72265703 755.41454909 429.8825809 757.44727749 431.07073933 C759.86298834 432.44496644 762.25924518 433.51808585 764.85527045 434.50545114 C769.18049237 436.32153442 773.00387532 438.30381804 776 442 C778.85138089 449.27503869 777.95643176 457.70527594 777.80381775 465.36708069 C777.81035987 467.79613169 777.82349549 470.22517238 777.84265524 472.65415663 C777.86920627 477.9347564 777.84923088 483.21212509 777.78808212 488.49221611 C777.69741795 496.34276805 777.6930562 504.19172404 777.70621195 512.04270408 C777.72590609 525.24948009 777.67585761 538.45512917 777.58595085 551.66157722 C777.49717107 564.73601929 777.43945722 577.8099919 777.42315865 590.8847332 C777.42212755 591.6979001 777.42109646 592.51106701 777.42003412 593.34887533 C777.41495906 597.47860064 777.41043833 601.60832636 777.40613098 605.73805254 C777.37463113 634.98315848 777.27358952 664.22765143 777.1315918 693.47241211 C776.9938091 721.88188417 776.88756325 750.29118845 776.82397461 778.70092773 C776.82200172 779.57675482 776.82002882 780.4525819 776.81799615 781.3549492 C776.79821822 790.15042714 776.77908102 798.94590638 776.76041326 807.74138674 C776.72237085 825.65852765 776.68005207 843.57565762 776.63514709 861.49278259 C776.63205807 862.72846218 776.63205807 862.72846218 776.62890664 863.98910498 C776.49091454 918.99299369 776.25292642 973.99653459 776 1029 C771.81661381 1028.36538124 768.68642644 1027.56465152 764.97265625 1025.515625 C764.02793457 1024.99943604 763.08321289 1024.48324707 762.10986328 1023.95141602 C761.1042334 1023.38994873 760.09860352 1022.82848145 759.0625 1022.25 C758.00272949 1021.66726318 756.94295898 1021.08452637 755.85107422 1020.48413086 C747.79283182 1016.03913121 739.78700582 1011.50104348 731.78930664 1006.94824219 C723.4933141 1002.23987723 715.09877778 997.72676382 706.6875 993.22851562 C699.61082461 989.43383755 692.59913668 985.54214723 685.625 981.5625 C677.1576166 976.73243053 668.60587335 972.07743688 660 967.5 C650.45028566 962.42053708 640.98834909 957.21050416 631.59301758 951.8503418 C623.2464427 947.10322278 614.80025126 942.55236539 606.3371582 938.01708984 C598.02063028 933.55832209 589.75688303 929.01476271 581.52099609 924.40917969 C566.53846671 916.03428528 551.52867905 907.71569798 536.42504883 899.56103516 C519.17244249 890.24034797 502.10946029 880.58129776 485 871 C485 815.56 485 760.12 485 703 C489.36670614 703.87334123 492.0896879 704.85928651 495.99214172 706.81568909 C496.57627828 707.10647573 497.16041484 707.39726237 497.76225251 707.69686073 C499.71199071 708.66926606 501.65732518 709.65016654 503.6027832 710.63110352 C505.00225987 711.33126509 506.40200121 712.03089787 507.80198669 712.7300415 C511.59766367 714.62744973 515.38959596 716.53223348 519.18090081 718.4383595 C523.14524117 720.4299083 527.11298218 722.41465843 531.08036804 724.40013123 C538.59080191 728.16000977 546.09815593 731.92599562 553.6044237 735.69418329 C562.15097831 739.98422822 570.70094245 744.26745659 579.25120032 748.55011475 C596.8379389 757.35916171 614.42037647 766.17676351 632 775 C631.97966265 774.34534602 631.95932529 773.69069204 631.93837166 773.01620007 C630.48972864 726.28721589 629.23463145 679.55472055 628.07441831 632.817747 C627.89494628 625.59601171 627.71272475 618.37434756 627.52993953 611.15269548 C627.35009407 604.04375872 627.17181533 596.93478385 626.99479115 589.82577628 C626.89060511 585.64221392 626.78588982 581.45866685 626.67965317 577.27515602 C626.58096914 573.38624654 626.48426991 569.49729239 626.38901901 565.60829735 C626.35423298 564.20073117 626.3187929 562.79318095 626.28258514 561.38565063 C626.0311136 551.58778596 625.96091719 541.80013028 626 532 C625.23343079 531.70195969 624.46686157 531.40391937 623.67706299 531.09684753 C620.61838021 529.84364256 617.89551597 528.29059137 615.046875 526.61328125 C614.19449249 526.11304695 614.19449249 526.11304695 613.32489014 525.60270691 C611.46450083 524.50948342 609.60720852 523.41111702 607.75 522.3125 C606.44086697 521.54147687 605.1316206 520.77064616 603.82226562 520 C594.66876401 514.60591217 585.55473501 509.1470098 576.45361328 503.66503906 C568.54357527 498.90725318 560.59296394 494.22229245 552.625 489.5625 C539.84360102 482.08744653 527.09706151 474.55554252 514.36474609 466.99707031 C508.64054694 463.59959904 502.91402833 460.20604345 497.1875 456.8125 C496.06069824 456.14468506 494.93389648 455.47687012 493.77294922 454.78881836 C486.85161246 450.68749066 479.92715142 446.59149769 473 442.5 C470.30788214 440.90928215 467.61583517 439.31844443 464.92382812 437.72753906 C462.85502186 436.50518827 460.78598908 435.2832208 458.71679688 434.06152344 C455.80068226 432.33972731 452.88546578 430.61641771 449.97070312 428.89233398 C448.33517419 427.92535767 446.69885849 426.95971246 445.0625 425.99414062 C435.64738942 420.42276054 426.33841746 414.70681067 417 409 C416.67 625.48 416.34 841.96 416 1065 C417.98 1065.66 419.96 1066.32 422 1067 C423.27017537 1067.58155059 424.5254243 1068.19761932 425.7578125 1068.85546875 C426.4502002 1069.2222876 427.14258789 1069.58910645 427.85595703 1069.96704102 C428.60474121 1070.36979248 429.35352539 1070.77254395 430.125 1071.1875 C430.94210449 1071.6218335 431.75920898 1072.05616699 432.60107422 1072.50366211 C437.51348699 1075.11923894 442.41243353 1077.75982595 447.3125 1080.3984375 C449.58315189 1081.62012896 451.85399108 1082.84147235 454.125 1084.0625 C454.70640747 1084.37533936 455.28781494 1084.68817871 455.88684082 1085.01049805 C466.53096108 1090.73304948 477.26239574 1096.27622294 488.01824951 1101.7852478 C496.32397585 1106.04179878 504.58475051 1110.35274477 512.75 1114.875 C522.62047246 1120.33823659 532.64550989 1125.48660435 542.6875 1130.625 C543.50286224 1131.04227356 544.31822449 1131.45954712 545.15829468 1131.88946533 C548.34196501 1133.51855972 551.52571011 1135.14750784 554.70960999 1136.77615356 C565.26605703 1142.17900226 575.75054237 1147.7093009 586.19140625 1153.33203125 C588.50244224 1154.57582316 590.81360722 1155.81937161 593.125 1157.0625 C593.70921722 1157.37688019 594.29343445 1157.69126038 594.89535522 1158.01516724 C605.53664467 1163.73613606 616.26528246 1169.27770148 627.01824951 1174.7852478 C635.32396787 1179.04179469 643.5848696 1183.35254099 651.75 1187.875 C662.36142878 1193.7515104 673.16346166 1199.24339118 683.96520996 1204.75872803 C693.87248135 1209.81989597 703.7160745 1214.95636623 713.44384766 1220.35668945 C724.01388691 1226.18118166 734.79718227 1231.60436922 745.55859375 1237.06445312 C773.04721793 1251.04721793 773.04721793 1251.04721793 776 1254 C776.09525367 1256.92194665 776.12552736 1259.82020329 776.11352539 1262.74243164 C776.11367142 1263.6594133 776.11381744 1264.57639496 776.1139679 1265.52116394 C776.1132684 1268.56751836 776.10547428 1271.61381245 776.09765625 1274.66015625 C776.0957922 1276.76622993 776.09436824 1278.87230403 776.09336853 1280.9783783 C776.08954231 1286.53342883 776.07971114 1292.08845341 776.06866455 1297.64349365 C776.05845267 1303.3072474 776.05387139 1308.97100533 776.04882812 1314.63476562 C776.03808896 1325.75652185 776.0210113 1336.87825877 776 1348 C775.29668045 1348.39333527 774.5933609 1348.78667053 773.86872864 1349.19192505 C770.62709626 1351.00513756 767.385812 1352.81897151 764.14453125 1354.6328125 C763.03855591 1355.2513208 761.93258057 1355.8698291 760.79309082 1356.50708008 C750.49120206 1362.27310503 740.24116056 1368.12703278 730 1374 C725.41768354 1376.62677914 720.83452916 1379.25208512 716.25 1381.875 C715.65785706 1382.21380188 715.06571411 1382.55260376 714.45562744 1382.90167236 C704.97932957 1388.32116483 695.46690774 1393.67349308 685.93579102 1398.99609375 C675.91724246 1404.59481163 665.9557986 1410.29067843 656 1416 C651.41768354 1418.62677914 646.83452916 1421.25208512 642.25 1423.875 C641.65785706 1424.21380188 641.06571411 1424.55260376 640.45562744 1424.90167236 C630.97932957 1430.32116483 621.46690774 1435.67349308 611.93579102 1440.99609375 C601.91724246 1446.59481163 591.9557986 1452.29067843 582 1458 C577.41768354 1460.62677914 572.83452916 1463.25208512 568.25 1465.875 C567.65785706 1466.21380188 567.06571411 1466.55260376 566.45562744 1466.90167236 C556.97932957 1472.32116483 547.46690774 1477.67349308 537.93579102 1482.99609375 C527.91724246 1488.59481163 517.9557986 1494.29067843 508 1500 C503.41768354 1502.62677914 498.83452916 1505.25208512 494.25 1507.875 C493.65785706 1508.21380188 493.06571411 1508.55260376 492.45562744 1508.90167236 C482.97932957 1514.32116483 473.46690774 1519.67349308 463.93579102 1524.99609375 C453.91724246 1530.59481163 443.9557986 1536.29067843 434 1542 C429.41768354 1544.62677914 424.83452916 1547.25208512 420.25 1549.875 C419.65785706 1550.21380188 419.06571411 1550.55260376 418.45562744 1550.90167236 C408.97932957 1556.32116483 399.46690774 1561.67349308 389.93579102 1566.99609375 C379.91724246 1572.59481163 369.9557986 1578.29067843 360 1584 C355.41768343 1586.6267792 350.8344435 1589.2519353 346.25 1591.875 C345.65686005 1592.21446655 345.06372009 1592.55393311 344.4526062 1592.90368652 C335.05052004 1598.28250619 325.60665652 1603.5828631 316.14453125 1608.85546875 C309.1283147 1612.77708028 302.17776478 1616.79950612 295.25 1620.875 C285.80510225 1626.42907509 276.24833255 1631.75678078 266.63934326 1637.01895142 C257.32459894 1642.12339701 248.11669022 1647.38709969 238.96362305 1652.77685547 C230.33826739 1657.84061158 221.6058031 1662.69876075 212.8527832 1667.53759766 C203.46618306 1672.72938181 194.14336324 1678.0245763 184.84228516 1683.36767578 C179.31462934 1686.54220823 173.78304144 1689.70986656 168.25 1692.875 C167.65767578 1693.21389252 167.06535156 1693.55278503 166.45507812 1693.90194702 C156.97896724 1699.32135571 147.46672986 1704.67359241 137.93579102 1709.99609375 C127.91724246 1715.59481163 117.9557986 1721.29067843 108 1727 C103.41768354 1729.62677914 98.83452916 1732.25208512 94.25 1734.875 C93.36178558 1735.38320282 93.36178558 1735.38320282 92.45562744 1735.90167236 C82.97932957 1741.32116483 73.46690774 1746.67349308 63.93579102 1751.99609375 C57.5018068 1755.5916308 51.08586823 1759.2164903 44.6875 1762.875 C43.86507812 1763.34212402 43.04265625 1763.80924805 42.1953125 1764.29052734 C37.63060143 1766.89035993 33.09516798 1769.53198703 28.58970642 1772.23287964 C26.04927882 1773.75196097 23.49950142 1775.25493177 20.94863892 1776.75640869 C19.70019619 1777.49680865 18.45608838 1778.24457172 17.21664429 1778.99993896 C15.47981188 1780.05757615 13.72647313 1781.08795984 11.97265625 1782.1171875 C10.96468994 1782.72159668 9.95672363 1783.32600586 8.91821289 1783.94873047 C5.12132711 1785.31653689 3.61889916 1784.659933 0 1783 C-1.77292995 1782.11328637 -3.52192011 1781.1773634 -5.24609375 1780.19921875 C-6.23625488 1779.64097412 -7.22641602 1779.08272949 -8.24658203 1778.50756836 C-9.29958496 1777.9069458 -10.35258789 1777.30632324 -11.4375 1776.6875 C-12.54206543 1776.06302979 -13.64663086 1775.43855957 -14.78466797 1774.79516602 C-17.07596965 1773.49913726 -19.36600018 1772.20085873 -21.65478516 1770.90039062 C-24.75005848 1769.14198984 -27.84868286 1767.38972543 -30.94921875 1765.640625 C-37.58116587 1761.89877001 -44.20756053 1758.14713234 -50.83398438 1754.39550781 C-53.68073174 1752.78404896 -56.52775631 1751.17308176 -59.375 1749.5625 C-60.31730469 1749.02947266 -61.25960937 1748.49644531 -62.23046875 1747.94726562 C-69.35056146 1743.92349546 -76.48596379 1739.92754118 -83.625 1735.9375 C-92.1281795 1731.18441725 -100.60133036 1726.38276175 -109.05175781 1721.53662109 C-116.85941011 1717.06561021 -124.70852068 1712.67023845 -132.5625 1708.28125 C-140.49954873 1703.84469328 -148.41861245 1699.37723272 -156.33105469 1694.89697266 C-163.41648379 1690.88788773 -170.51836679 1686.90885385 -177.625 1682.9375 C-186.12821198 1678.1844761 -194.60133101 1673.38276138 -203.05175781 1668.53662109 C-210.85941011 1664.06561021 -218.70852068 1659.67023845 -226.5625 1655.28125 C-234.49954873 1650.84469328 -242.41861245 1646.37723272 -250.33105469 1641.89697266 C-257.41648379 1637.88788773 -264.51836679 1633.90885385 -271.625 1629.9375 C-280.12821198 1625.1844761 -288.60133101 1620.38276138 -297.05175781 1615.53662109 C-304.85941011 1611.06561021 -312.70852068 1606.67023845 -320.5625 1602.28125 C-328.49954873 1597.84469328 -336.41861245 1593.37723272 -344.33105469 1588.89697266 C-351.41648379 1584.88788773 -358.51836679 1580.90885385 -365.625 1576.9375 C-374.12821198 1572.1844761 -382.60133101 1567.38276138 -391.05175781 1562.53662109 C-398.85941011 1558.06561021 -406.70852068 1553.67023845 -414.5625 1549.28125 C-422.49954873 1544.84469328 -430.41861245 1540.37723272 -438.33105469 1535.89697266 C-445.41648379 1531.88788773 -452.51836679 1527.90885385 -459.625 1523.9375 C-468.12821198 1519.1844761 -476.60133101 1514.38276138 -485.05175781 1509.53662109 C-492.85799203 1505.06642227 -500.70582557 1500.67212372 -508.55810547 1496.28344727 C-520.34076635 1489.69656851 -532.08719963 1483.04608236 -543.83398438 1476.39550781 C-546.68073171 1474.78404898 -549.52778795 1473.17313761 -552.375 1471.5625 C-553.31947998 1471.02802246 -554.26395996 1470.49354492 -555.23706055 1469.94287109 C-560.20360495 1467.13523683 -565.17664233 1464.33991364 -570.16015625 1461.5625 C-580.52179859 1455.78636331 -590.83821509 1449.95399565 -601.0625 1443.9375 C-610.01073332 1438.67568674 -619.06674787 1433.65908921 -628.21337891 1428.75146484 C-635.54539068 1424.81064323 -642.790196 1420.73856887 -650.00341797 1416.58496094 C-656.74160422 1412.70743297 -663.52082178 1408.90793229 -670.3125 1405.125 C-678.62195577 1400.49331165 -686.86414622 1395.7629011 -695.0625 1390.9375 C-704.00274417 1385.68025568 -713.05040477 1380.66741807 -722.18920898 1375.76464844 C-732.23623741 1370.36506212 -742.11849978 1364.69506311 -752 1359 C-756.62 1356.36 -761.24 1353.72 -766 1351 C-766 1155.97 -766 960.94 -766 760 C-762.30676314 760.92330921 -760.34836631 761.85608298 -757.203125 763.8515625 C-756.25655029 764.44799561 -755.30997559 765.04442871 -754.3347168 765.65893555 C-753.31676025 766.30773682 -752.29880371 766.95653809 -751.25 767.625 C-749.07432148 768.99886062 -746.89853725 770.37255383 -744.72265625 771.74609375 C-743.60777832 772.45233887 -742.49290039 773.15858398 -741.34423828 773.88623047 C-736.13945275 777.17598322 -730.91256041 780.43008867 -725.6875 783.6875 C-717.85046653 788.58217764 -710.02899599 793.50061295 -702.22143555 798.44213867 C-695.82883204 802.48478797 -689.41620125 806.49493112 -683 810.5 C-675.05907037 815.45682241 -667.13243171 820.43504751 -659.22265625 825.44140625 C-652.82960248 829.48423115 -646.41660387 833.4946798 -640 837.5 C-632.05907037 842.45682241 -624.13243171 847.43504751 -616.22265625 852.44140625 C-609.82960248 856.48423115 -603.41660387 860.4946798 -597 864.5 C-589.05907037 869.45682241 -581.13243171 874.43504751 -573.22265625 879.44140625 C-566.82960248 883.48423115 -560.41660387 887.4946798 -554 891.5 C-546.05907037 896.45682241 -538.13243171 901.43504751 -530.22265625 906.44140625 C-523.82960248 910.48423115 -517.41660387 914.4946798 -511 918.5 C-503.05907037 923.45682241 -495.13243171 928.43504751 -487.22265625 933.44140625 C-480.82960248 937.48423115 -474.41660387 941.4946798 -468 945.5 C-460.07079581 950.44950325 -452.15546685 955.41976435 -444.2578125 960.41943359 C-436.46874824 965.3457509 -428.65051073 970.22523607 -420.83007812 975.1015625 C-419.85490234 975.71 -418.87972656 976.3184375 -417.875 976.9453125 C-417.00617188 977.48687988 -416.13734375 978.02844727 -415.2421875 978.58642578 C-413.47825998 979.69848374 -411.73500208 980.84333195 -410 982 C-409.67 899.83 -409.34 817.66 -409 733 C-410.65 732.34 -412.3 731.68 -414 731 C-415.45157228 730.24094213 -416.88787469 729.45206424 -418.30859375 728.63671875 C-419.12585938 728.16919189 -419.943125 727.70166504 -420.78515625 727.2199707 C-421.66042969 726.71425537 -422.53570312 726.20854004 -423.4375 725.6875 C-424.365625 725.15406982 -425.29375 724.62063965 -426.25 724.07104492 C-434.54693422 719.2895597 -442.79067368 714.41946008 -451.02734375 709.53515625 C-457.6928117 705.58471003 -464.3768758 701.66618582 -471.0625 697.75 C-471.67230713 697.39273834 -472.28211426 697.03547668 -472.91040039 696.66738892 C-476.02753864 694.84118723 -479.14482427 693.01523737 -482.26220703 691.18945312 C-485.93441115 689.03859925 -489.60598736 686.8866755 -493.27734375 684.734375 C-493.87383224 684.38469162 -494.47032074 684.03500824 -495.08488464 683.67472839 C-497.49281072 682.26307748 -499.90070739 680.85137642 -502.30856323 679.43960571 C-508.36766041 675.88704492 -514.42698358 672.33487809 -520.48875427 668.78688049 C-532.94897108 661.49374067 -545.3976167 654.18261098 -557.8125 646.8125 C-568.11144683 640.69889518 -578.44245249 634.64297552 -588.79296875 628.6171875 C-595.59900244 624.65401452 -602.39386302 620.67186651 -609.1875 616.6875 C-610.09770905 616.15372238 -610.09770905 616.15372238 -611.02630615 615.60916138 C-614.1157704 613.79737162 -617.20513252 611.98540782 -620.29443359 610.17333984 C-623.95246864 608.02775581 -627.61094493 605.8829251 -631.26953125 603.73828125 C-632.16575195 603.21284225 -632.16575195 603.21284225 -633.08007812 602.67678833 C-636.08456386 600.9154035 -639.08947472 599.15475133 -642.09521484 597.39550781 C-647.66070977 594.13705203 -653.22222958 590.87241547 -658.76919556 587.58248901 C-661.33295324 586.06249995 -663.89906196 584.54650416 -666.46533203 583.03076172 C-667.66457814 582.32097794 -668.86272544 581.60933312 -670.05957031 580.89550781 C-687.5693045 570.45410795 -705.9248315 562.42102068 -724.625 554.375 C-726.9871574 553.35457916 -729.3491377 552.33374824 -731.7109375 551.3125 C-743.70897528 546.12467749 -743.70897528 546.12467749 -755.72949219 540.98925781 C-756.39774017 540.70523102 -757.06598816 540.42120422 -757.75448608 540.12857056 C-759.42435841 539.42011373 -761.09564971 538.71500388 -762.76708984 538.01025391 C-765 537 -765 537 -766 536 C-766.09526806 533.04753646 -766.12552452 530.11851579 -766.11352539 527.16577148 C-766.11367142 526.23903625 -766.11381744 525.31230103 -766.1139679 524.35748291 C-766.11326838 521.27866313 -766.10547421 518.19990303 -766.09765625 515.12109375 C-766.09579221 512.99259982 -766.09436824 510.86410547 -766.09336853 508.73561096 C-766.08954228 503.1213768 -766.07971108 497.50716832 -766.06866455 491.89294434 C-766.05845273 486.16886747 -766.0538714 480.44478647 -766.04882812 474.72070312 C-766.03808891 463.48045744 -766.0210112 452.24023085 -766 441 C-765.21529327 440.55229752 -764.43058655 440.10459503 -763.62210083 439.64332581 C-760.64887394 437.94665172 -757.67592725 436.24948857 -754.70315552 434.55201721 C-753.42807644 433.82406498 -752.152893 433.09629551 -750.87759399 432.36872864 C-742.51889121 427.59982583 -734.18152904 422.79695429 -725.875 417.9375 C-724.34024017 417.03972336 -724.34024017 417.03972336 -722.7744751 416.12380981 C-721.85632019 415.58666351 -720.93816528 415.04951721 -719.9921875 414.49609375 C-713.67623582 410.80502077 -707.33923945 407.15089057 -701 403.5 C-688.63971476 396.37924114 -676.31532595 389.19816576 -664 382 C-650.59241282 374.16342017 -637.16840721 366.35721392 -623.71142578 358.60571289 C-616.46078014 354.42672406 -609.22527414 350.2226866 -602 346 C-593.68248208 341.1389704 -585.34794347 336.30858897 -577 331.5 C-564.63977482 324.37913592 -552.31532673 317.19816622 -540 310 C-526.59241282 302.16342017 -513.16840721 294.35721392 -499.71142578 286.60571289 C-492.46078014 282.42672406 -485.22527414 278.2226866 -478 274 C-469.68248208 269.1389704 -461.34794347 264.30858897 -453 259.5 C-440.63977482 252.37913592 -428.31532673 245.19816622 -416 238 C-402.59241282 230.16342017 -389.16840721 222.35721392 -375.71142578 214.60571289 C-368.46078014 210.42672406 -361.22527414 206.2226866 -354 202 C-345.68248208 197.1389704 -337.34794347 192.30858897 -329 187.5 C-316.63977482 180.37913592 -304.31532673 173.19816622 -292 166 C-278.59241282 158.16342017 -265.16840721 150.35721392 -251.71142578 142.60571289 C-244.46078014 138.42672406 -237.22527414 134.2226866 -230 130 C-221.68248208 125.1389704 -213.34794347 120.30858897 -205 115.5 C-192.63977482 108.37913592 -180.31532673 101.19816622 -168 94 C-154.59241282 86.16342017 -141.16840721 78.35721392 -127.71142578 70.60571289 C-120.46078014 66.42672406 -113.22527414 62.2226866 -106 58 C-97.68248208 53.1389704 -89.34794347 48.30858897 -81 43.5 C-69.64559192 36.95859841 -58.32069234 30.36793188 -47.00732422 23.75585938 C-43.90367348 21.9437587 -40.79783148 20.1354649 -37.69140625 18.328125 C-36.65234131 17.72307129 -35.61327637 17.11801758 -34.54272461 16.49462891 C-32.49889982 15.30519647 -30.45416377 14.11732825 -28.40844727 12.93115234 C-24.01163185 10.3748558 -19.63837101 7.79862652 -15.3359375 5.0859375 C-14.6457251 4.65450439 -13.9555127 4.22307129 -13.24438477 3.77856445 C-12.00488555 2.99833627 -10.77278486 2.20615489 -9.55053711 1.39916992 C-5.85913808 -0.91884008 -4.13756673 -1.18150517 0 0 Z M-0.86328125 167.68359375 C-2.38912842 168.56736694 -2.38912842 168.56736694 -3.94580078 169.46899414 C-5.05681152 170.11860107 -6.16782227 170.76820801 -7.3125 171.4375 C-8.478818 172.11547292 -9.64532549 172.79311994 -10.81201172 173.47045898 C-14.54527346 175.6402609 -18.27306199 177.81935887 -22 180 C-22.91558685 180.53542419 -22.91558685 180.53542419 -23.84967041 181.08166504 C-30.55596755 185.00363037 -37.257777 188.93320613 -43.95703125 192.8671875 C-50.40230559 196.65186881 -56.85539859 200.42302741 -63.3125 204.1875 C-64.28695068 204.7556543 -65.26140137 205.32380859 -66.26538086 205.90917969 C-70.14250301 208.16935356 -74.01998808 210.42890441 -77.89746094 212.68847656 C-89.77407819 219.61018665 -101.64271958 226.54523025 -113.5 233.5 C-127.28573547 241.58588585 -141.08890156 249.64162818 -154.89746094 257.68847656 C-167.39590801 264.97258999 -179.88449894 272.27319725 -192.36239624 279.59243774 C-201.53448913 284.97234895 -210.7151275 290.33734887 -219.90234375 295.69140625 C-227.77569394 300.28157986 -235.63891337 304.88887184 -243.5 309.5 C-257.2856755 317.58598777 -271.08890191 325.64162838 -284.89746094 333.68847656 C-297.39590801 340.97258999 -309.88449894 348.27319725 -322.36239624 355.59243774 C-331.53448913 360.97234895 -340.7151275 366.33734887 -349.90234375 371.69140625 C-357.77569394 376.28157986 -365.63891337 380.88887184 -373.5 385.5 C-387.2856755 393.58598777 -401.08890191 401.64162838 -414.89746094 409.68847656 C-426.77407819 416.61018665 -438.64271958 423.54523025 -450.5 430.5 C-464.28573547 438.58588585 -478.08890156 446.64162818 -491.89746094 454.68847656 C-503.42610771 461.40738894 -514.94962279 468.13500285 -526.46304321 474.87997437 C-527.71699278 475.61453891 -528.97103814 476.34893994 -530.22518921 477.0831604 C-537.50845677 481.34750672 -544.77432685 485.63857626 -552 490 C-549.07370751 493.17440814 -546.15654511 495.2534503 -542.3984375 497.36328125 C-541.28178711 497.99508301 -540.16513672 498.62688477 -539.01464844 499.27783203 C-538.42228394 499.6089801 -537.82991943 499.94012817 -537.21960449 500.28131104 C-535.34132225 501.33132687 -533.46750725 502.38893659 -531.59472656 503.44873047 C-529.00086572 504.91634857 -526.405637 506.38150271 -523.80957031 507.84521484 C-518.10181796 511.0682868 -512.42534707 514.34524862 -506.75 517.625 C-505.68185059 518.24157471 -504.61370117 518.85814941 -503.51318359 519.4934082 C-495.33916978 524.21577188 -487.18446337 528.97082259 -479.03369141 533.7331543 C-467.38314679 540.5361481 -455.6908046 547.26651284 -444 554 C-430.32445686 561.87662589 -416.66039042 569.77120092 -403.03417969 577.73291016 C-394.67312094 582.61499018 -386.29826624 587.47301768 -377.89770508 592.28686523 C-372.7636344 595.23182039 -367.64652194 598.1980223 -362.57757568 601.25358582 C-360.19457403 602.68831966 -357.80378106 604.10977353 -355.41229248 605.53030396 C-353.72104306 606.54242627 -352.04127518 607.57365571 -350.36181641 608.60522461 C-349.33878418 609.21116455 -348.31575195 609.81710449 -347.26171875 610.44140625 C-346.36412842 610.98482666 -345.46653809 611.52824707 -344.54174805 612.08813477 C-342.01478461 613.26814997 -342.01478461 613.26814997 -339.41796875 612.30102539 C-336.20420949 610.57436645 -336.20420949 610.57436645 -333.05078125 608.7421875 C-332.29925781 608.29012939 -331.54773438 607.83807129 -330.7734375 607.37231445 C-329.96132813 606.87820068 -329.14921875 606.38408691 -328.3125 605.875 C-327.44238281 605.3493042 -326.57226562 604.8236084 -325.67578125 604.28198242 C-317.49012101 599.32474313 -309.34483599 594.30149315 -301.20043945 589.27685547 C-293.15485511 584.31573364 -285.08434167 579.39761155 -277 574.5 C-267.97868265 569.03418148 -258.97769677 563.53733852 -250 558 C-240.43493259 552.10037813 -230.8409202 546.25082782 -221.22949219 540.42724609 C-212.79891874 535.31816031 -204.39032117 530.17505211 -196 525 C-186.43493259 519.10037813 -176.8409202 513.25082782 -167.22949219 507.42724609 C-158.79891874 502.31816031 -150.39032117 497.17505211 -142 492 C-132.43493259 486.10037813 -122.8409202 480.25082782 -113.22949219 474.42724609 C-104.79891874 469.31816031 -96.39032117 464.17505211 -88 459 C-78.4409631 453.10409768 -68.85321927 447.25785666 -59.24761963 441.43832397 C-49.37081796 435.45341347 -39.52555621 429.4189935 -29.69921875 423.3515625 C-27.7329304 422.13821251 -25.76397936 420.92916355 -23.79199219 419.72509766 C-21.91782961 418.56710249 -20.05900146 417.38394466 -18.21582031 416.17724609 C-17.34280273 415.61730957 -16.46978516 415.05737305 -15.5703125 414.48046875 C-14.80734863 413.97797607 -14.04438477 413.4754834 -13.25830078 412.95776367 C-10.33164888 411.71654687 -9.00001194 412.01972661 -6 413 C-3.50585938 414.22070312 -3.50585938 414.22070312 -0.84375 415.78125 C0.16357178 416.36704834 1.17089355 416.95284668 2.20874023 417.55639648 C3.83791382 418.51848022 3.83791382 418.51848022 5.5 419.5 C6.65467216 420.1751717 7.80970945 420.84971927 8.96508789 421.52368164 C11.40381008 422.94802545 13.83988336 424.37675603 16.27392578 425.80908203 C19.91627748 427.95227875 23.56501858 430.08440702 27.21484375 432.21484375 C40.23815723 439.82217668 53.22215654 447.49468432 66.19165039 455.19335938 C75.36601311 460.63499265 84.57462012 466.01614157 93.79296875 471.3828125 C100.59900244 475.34598548 107.39386302 479.32813349 114.1875 483.3125 C114.79430603 483.66835175 115.40111206 484.02420349 116.02630615 484.39083862 C119.1157704 486.20262838 122.20513252 488.01459218 125.29443359 489.82666016 C130.76002104 493.03244605 136.22658745 496.23656178 141.69308472 499.4407959 C143.5019105 500.50111993 145.31065901 501.56157567 147.11938477 502.62207031 C152.57491918 505.82066365 158.03085086 509.01856973 163.48875427 512.21311951 C175.94897108 519.50625933 188.3976167 526.81738902 200.8125 534.1875 C210.10602273 539.70427043 219.42051874 545.18280049 228.76245117 550.6171875 C234.42787099 553.91343176 240.08533006 557.22267549 245.734375 560.546875 C247.05874663 561.32561901 248.38312811 562.10434628 249.70751953 562.88305664 C251.64827521 564.02424837 253.58865224 565.16605686 255.527771 566.31002808 C257.32218643 567.36857669 259.11799594 568.42472478 260.9140625 569.48046875 C261.9448291 570.08785889 262.9755957 570.69524902 264.03759766 571.32104492 C266.97935746 572.98830074 269.97093662 574.49876851 273 576 C273.66279335 544.05976824 274.17538468 512.12150625 274.48089455 480.17599622 C274.51716135 476.39751157 274.55469705 472.61904052 274.59301758 468.84057617 C274.60062458 468.08840991 274.60823158 467.33624365 274.6160691 466.56128448 C274.74197781 454.41033693 274.97044685 442.26340245 275.23743109 430.11482931 C275.5094607 417.6317515 275.66986979 405.15076164 275.72856635 392.66484207 C275.76466536 385.65675052 275.85153964 378.65706914 276.06617165 371.65197945 C278.55595269 344.03420466 278.55595269 344.03420466 270.19445419 319.04746628 C263.85873583 312.79611727 255.93404983 309.76475981 247.57048607 307.20454216 C242.18054474 305.38618705 237.63776522 302.49147986 232.875 299.4375 C231.11562398 298.38839454 229.35300352 297.34469411 227.5859375 296.30859375 C220.06871021 291.85699841 212.55314603 287.40259487 205.0378418 282.94775391 C194.3646125 276.62158092 183.68332146 270.30911016 173 264 C160.58179825 256.66634416 148.16857648 249.32438895 135.76260376 241.97006226 C128.17847692 237.47425711 120.5914991 232.98334483 113 228.5 C104.24864366 223.33167321 95.50401121 218.15205494 86.76123047 212.96923828 C79.17756057 208.47370881 71.59098407 203.98316726 64 199.5 C56.37056231 194.99310278 48.74236281 190.48411722 41.11764526 185.96923828 C39.39252911 184.94787816 37.66709137 183.92706128 35.94165039 182.90625 C30.58369099 179.73253774 25.23509787 176.54525801 19.91015625 173.31640625 C18.98090332 172.75381104 18.05165039 172.19121582 17.09423828 171.61157227 C15.36496447 170.56259814 13.63794845 169.5098899 11.91357422 168.45288086 C11.15705566 167.99405518 10.40053711 167.53522949 9.62109375 167.0625 C8.63774048 166.46115234 8.63774048 166.46115234 7.63452148 165.84765625 C4.19371909 164.06327001 2.24124832 165.87748983 -0.86328125 167.68359375 Z M-1.23828125 581.9375 C-2.35420654 582.57703613 -3.47013184 583.21657227 -4.61987305 583.87548828 C-5.5206105 584.39372162 -5.5206105 584.39372162 -6.43954468 584.92242432 C-8.33204963 586.01124758 -10.22600478 587.09750724 -12.12036133 588.18310547 C-14.76474425 589.69885434 -17.40852195 591.21565015 -20.05175781 592.73339844 C-26.09395019 596.20260511 -32.13973285 599.66552213 -38.1875 603.125 C-38.76605743 603.45610779 -39.34461487 603.78721558 -39.94070435 604.12835693 C-48.1828975 608.84379214 -56.45545616 613.50227981 -64.75 618.125 C-73.89445571 623.22214598 -82.95359092 628.44998746 -91.98144531 633.75048828 C-100.14259374 638.53005592 -108.38476861 643.15366602 -116.64892578 647.75219727 C-123.77628267 651.72815635 -130.83939092 655.80163998 -137.875 659.9375 C-147.47565504 665.57899163 -157.17952252 671.01212614 -166.92871094 676.39208984 C-175.38751812 681.07243587 -183.7483664 685.90186334 -192.08203125 690.80078125 C-199.1716139 694.9590041 -206.31811303 699.00356452 -213.5 703 C-222.80270742 708.17855058 -232.02777918 713.47497929 -241.21118164 718.86206055 C-248.993484 723.42521661 -256.81653639 727.91306354 -264.66699219 732.35791016 C-265.4871582 732.82374512 -266.30732422 733.28958008 -267.15234375 733.76953125 C-268.2350354 734.38211792 -268.2350354 734.38211792 -269.33959961 735.00708008 C-270.97429214 735.89297111 -270.97429214 735.89297111 -272 737 C-272.10075778 738.57754453 -272.13128514 740.15961202 -272.13455451 741.74036759 C-272.13910783 742.77457134 -272.14366114 743.80877508 -272.14835244 744.87431833 C-272.14829806 746.0267093 -272.14824367 747.17910026 -272.14818764 748.36641216 C-272.15203785 749.58308585 -272.15588806 750.79975955 -272.15985495 752.05330214 C-272.16958168 755.46095595 -272.17476566 758.86856372 -272.17807844 762.27622637 C-272.18272994 765.97200333 -272.19306325 769.66776503 -272.20264852 773.36353189 C-272.2207436 780.70739156 -272.23329047 788.05125151 -272.24411704 795.39512509 C-272.25327247 801.50301779 -272.26475728 807.61090244 -272.27774811 813.71878815 C-272.27961726 814.59861573 -272.28148641 815.47844331 -272.28341221 816.38493233 C-272.28722921 818.17915045 -272.29104802 819.97336856 -272.2948686 821.76758667 C-272.34605721 846.04686365 -272.3817561 870.32616026 -272.4140625 894.60546875 C-272.41538651 895.59915562 -272.41671053 896.59284249 -272.41807466 897.61664108 C-272.47024713 936.93065735 -272.51465043 976.24468388 -272.54586862 1015.55872255 C-272.55362192 1025.30257629 -272.56166915 1035.04642979 -272.56982422 1044.7902832 C-272.57071816 1045.86699734 -272.57161211 1046.94371149 -272.57253314 1048.05305333 C-272.60174863 1082.97431183 -272.66275138 1117.89542202 -272.74120806 1152.81660195 C-272.8216708 1188.69584114 -272.87296558 1224.57500027 -272.88632692 1260.45433045 C-272.88822008 1265.51836981 -272.89043332 1270.58240899 -272.89283371 1275.64644814 C-272.89329402 1276.64314859 -272.89375432 1277.63984905 -272.89422858 1278.66675255 C-272.90247948 1294.73033782 -272.9413669 1310.79371062 -272.99144951 1326.85721381 C-273.04106739 1342.99383739 -273.05789204 1359.13023096 -273.04102559 1375.2669244 C-273.03198445 1384.86186942 -273.04816824 1394.45600957 -273.10004109 1404.05082274 C-273.13219819 1410.45413125 -273.13188442 1416.85689828 -273.10481049 1423.26022913 C-273.09030317 1426.91303084 -273.09023563 1430.56429888 -273.12962742 1434.21695092 C-273.17167801 1438.14680535 -273.14452982 1442.07441127 -273.11022377 1446.00438213 C-273.13358105 1447.14506727 -273.15693832 1448.2857524 -273.18100339 1449.46100375 C-273.13896125 1455.30824982 -273.13896125 1455.30824982 -270.031951 1460.00512085 C-267.74580528 1461.55354545 -265.48758932 1462.8086473 -263 1464 C-261.45590454 1464.90878906 -261.45590454 1464.90878906 -259.88061523 1465.8359375 C-258.94934814 1466.34382813 -258.01808105 1466.85171875 -257.05859375 1467.375 C-255.99302246 1467.96031494 -254.92745117 1468.54562988 -253.82958984 1469.14868164 C-252.7102002 1469.7596167 -251.59081055 1470.37055176 -250.4375 1471 C-248.02013024 1472.32841173 -245.60521879 1473.66123035 -243.19140625 1474.99609375 C-242.28171082 1475.4991227 -242.28171082 1475.4991227 -241.3536377 1476.01231384 C-235.47506333 1479.27324865 -229.66923752 1482.65418175 -223.875 1486.0625 C-215.8033767 1490.80792324 -207.68186845 1495.44725772 -199.5 1500 C-190.27065229 1505.13625165 -181.12762875 1510.40212624 -172.01953125 1515.75 C-164.8947181 1519.92243959 -157.71453859 1523.98495244 -150.5 1528 C-141.27068598 1533.13631389 -132.12763027 1538.40212535 -123.01953125 1543.75 C-115.8947181 1547.92243959 -108.71453859 1551.98495244 -101.5 1556 C-92.27068598 1561.13631389 -83.12763027 1566.40212535 -74.01953125 1571.75 C-66.89471453 1575.92244169 -59.71445985 1579.98480621 -52.5 1584 C-44.15755339 1588.64473813 -35.86709567 1593.36683856 -27.625 1598.1875 C-26.64047852 1598.76185791 -25.65595703 1599.33621582 -24.64160156 1599.92797852 C-19.88135893 1602.70980974 -15.13667807 1605.5141036 -10.4140625 1608.359375 C-9.54056152 1608.87991455 -8.66706055 1609.4004541 -7.76708984 1609.93676758 C-6.13362025 1610.91067035 -4.50592376 1611.89434714 -2.88525391 1612.8894043 C-1.8051001 1613.53002808 -1.8051001 1613.53002808 -0.703125 1614.18359375 C-0.08083008 1614.56056396 0.54146484 1614.93753418 1.18261719 1615.32592773 C3.57282566 1616.21246261 4.62664329 1615.88549668 7 1615 C8.55012728 1614.23030672 10.07457972 1613.40791248 11.578125 1612.55078125 C12.47893799 1612.0398291 13.37975098 1611.52887695 14.30786133 1611.00244141 C15.27876709 1610.44476074 16.24967285 1609.88708008 17.25 1609.3125 C18.26924561 1608.73161621 19.28849121 1608.15073242 20.33862305 1607.55224609 C29.53848907 1602.29618605 38.68812791 1596.95418119 47.83203125 1591.6015625 C54.20565088 1587.87369234 60.60127367 1584.18456223 67 1580.5 C75.34805648 1575.69160872 83.6824834 1570.86102883 92 1566 C101.4099033 1560.50054464 110.84470563 1555.04550804 120.2890625 1549.60546875 C127.53951541 1545.42650842 134.77483863 1541.22252011 142 1537 C155.73046817 1528.97718322 169.51078086 1521.04141672 183.29101562 1513.10449219 C195.8676392 1505.85966952 208.43036957 1498.5926719 220.96142578 1491.26928711 C229.38569339 1486.34948718 237.83553896 1481.47477862 246.2890625 1476.60546875 C253.5395149 1472.42650872 260.77488269 1468.22259494 268 1464 C277.4099033 1458.50054464 286.84470563 1453.04550804 296.2890625 1447.60546875 C303.5395149 1443.42650872 310.77488269 1439.22259494 318 1435 C327.4099033 1429.50054464 336.84470563 1424.04550804 346.2890625 1418.60546875 C353.53951541 1414.42650842 360.77483863 1410.22252011 368 1406 C381.73046817 1397.97718322 395.51078086 1390.04141672 409.29101562 1382.10449219 C421.8676392 1374.85966952 434.43036957 1367.5926719 446.96142578 1360.26928711 C455.38569339 1355.34948718 463.83553896 1350.47477862 472.2890625 1345.60546875 C479.53951514 1341.42650858 486.77486236 1337.22256044 494 1333 C504.57515438 1326.82014689 515.18033678 1320.69334539 525.79296875 1314.578125 C534.20301633 1309.73205563 542.60195013 1304.86682167 551 1300 C547.77909086 1297.33804403 544.55312145 1295.015572 540.95703125 1292.890625 C539.49076294 1292.01881592 539.49076294 1292.01881592 537.99487305 1291.12939453 C536.94468994 1290.50919434 535.89450684 1289.88899414 534.8125 1289.25 C532.54351033 1287.89969058 530.27512074 1286.54843713 528.0078125 1285.1953125 C527.42648056 1284.84866547 526.84514862 1284.50201843 526.24620056 1284.14486694 C520.19152303 1280.52855105 514.1872047 1276.83168639 508.1875 1273.125 C499.14830118 1267.54418843 490.08591636 1262.00422953 481 1256.5 C470.90308202 1250.38254468 460.83711799 1244.21705453 450.7890625 1238.01953125 C442.87977376 1233.14564751 434.94563 1228.31427168 427 1223.5 C416.90320776 1217.3823352 406.8371202 1211.21705589 396.7890625 1205.01953125 C391.22363364 1201.58998731 385.65115703 1198.17277599 380.0625 1194.78125 C379.48089615 1194.42823318 378.8992923 1194.07521637 378.30006409 1193.71150208 C375.37299133 1191.93597332 372.44377428 1190.16410016 369.51147461 1188.3972168 C364.12622243 1185.14725411 358.76451938 1181.87050433 353.46743774 1178.47817993 C351.07651933 1176.94703173 348.67800903 1175.42797715 346.27954102 1173.90869141 C344.59783508 1172.83505858 342.92862591 1171.74193081 341.25976562 1170.6484375 C340.24720703 1170.00777344 339.23464844 1169.36710937 338.19140625 1168.70703125 C337.30654541 1168.1344458 336.42168457 1167.56186035 335.51000977 1166.97192383 C333.02737587 1165.72934241 333.02737587 1165.72934241 330.46777344 1166.66015625 C328.05112095 1167.97224458 325.66943926 1169.2940543 323.32421875 1170.73046875 C322.42662842 1171.27815918 321.52903809 1171.82584961 320.60424805 1172.39013672 C319.64172119 1172.9832666 318.67919434 1173.57639648 317.6875 1174.1875 C316.67276611 1174.80898926 315.65803223 1175.43047852 314.61254883 1176.07080078 C306.44677373 1181.08265905 298.32029716 1186.1570309 290.20263672 1191.24633789 C281.6636573 1196.59716501 273.08670309 1201.88466026 264.50073242 1207.15966797 C257.82596249 1211.26053313 251.15827438 1215.3724086 244.5 1219.5 C236.74052362 1224.31024754 228.9662219 1229.09594594 221.1875 1233.875 C212.70511848 1239.08714848 204.24725228 1244.33614512 195.8125 1249.625 C187.13068969 1255.06809226 178.39989341 1260.42363616 169.63720703 1265.73535156 C161.78106501 1270.50548649 153.98467012 1275.3670235 146.19799805 1280.24951172 C136.58512245 1286.27242965 126.92298996 1292.21385799 117.2578125 1298.15234375 C111.56083857 1301.65300955 105.87183652 1305.16635743 100.1875 1308.6875 C99.33671875 1309.21448486 98.4859375 1309.74146973 97.609375 1310.28442383 C95.07274239 1311.85600154 92.53632692 1313.427929 90 1315 C86.60445535 1317.10463298 83.20866656 1319.2088707 79.8125 1321.3125 C78.9565625 1321.84270752 78.100625 1322.37291504 77.21875 1322.91918945 C71.31563196 1326.5732674 65.403508 1330.21248566 59.48828125 1333.84692383 C50.90608596 1339.12002267 42.3318962 1344.40400688 33.79760742 1349.75439453 C30.84589766 1351.60407149 27.89004129 1353.44697016 24.93359375 1355.2890625 C20.80509591 1357.86276077 16.69799338 1360.46764244 12.59765625 1363.0859375 C10.52380243 1364.39120499 8.44959557 1365.69591177 6.375 1367 C4.94377808 1367.9273999 4.94377808 1367.9273999 3.48364258 1368.87353516 C-3.02437647 1372.92924868 -3.02437647 1372.92924868 -7.0703125 1373.22265625 C-11.43243779 1371.40219596 -15.28626865 1368.9988015 -19.25 1366.4375 C-21.13237702 1365.24670716 -23.01521058 1364.05663578 -24.8984375 1362.8671875 C-25.89069336 1362.23651367 -26.88294922 1361.60583984 -27.90527344 1360.95605469 C-33.19889126 1357.6101675 -38.53825135 1354.33898404 -43.875 1351.0625 C-44.97295898 1350.38695068 -46.07091797 1349.71140137 -47.20214844 1349.01538086 C-55.22466472 1344.0812149 -63.26648692 1339.1794023 -71.31591797 1334.28930664 C-79.66320305 1329.21449596 -87.98146201 1324.09316123 -96.29760742 1318.9675293 C-103.45495207 1314.55878418 -110.62759137 1310.17616054 -117.8125 1305.8125 C-125.06289487 1301.40870339 -132.29263135 1296.9738662 -139.5 1292.5 C-148.45691854 1286.94105705 -157.45099074 1281.44516347 -166.4609375 1275.97265625 C-167.3508992 1275.38675217 -168.2408609 1274.80084808 -169.15779114 1274.19718933 C-172.18153617 1272.33021853 -175.26454196 1271.10373709 -178.58317566 1269.84346008 C-185.36372228 1266.96784768 -191.34797093 1263.84855905 -196 1258 C-199.98105761 1247.27603896 -198.88634486 1235.11848522 -198.53398967 1223.8679719 C-198.41749839 1219.36529807 -198.43279894 1214.86300594 -198.43348694 1210.35910034 C-198.4150807 1201.84994498 -198.2799944 1193.34689967 -198.10182053 1184.83975303 C-197.90458462 1175.14715344 -197.83915356 1165.4550222 -197.78420055 1155.7607348 C-197.66834133 1135.83759036 -197.3888802 1115.91956467 -197 1096 C-192.66244812 1098.29419033 -188.32609029 1100.59061774 -183.99073792 1102.88896179 C-182.52142465 1103.66752452 -181.051809 1104.44551691 -179.5818634 1105.22288513 C-170.62490686 1109.96026424 -161.72857239 1114.77210263 -152.9375 1119.8125 C-144.57164887 1124.59256707 -136.11025202 1129.13162609 -127.55029297 1133.55419922 C-118.22637557 1138.37713387 -109.02295558 1143.40853049 -99.81982422 1148.45703125 C-94.9299575 1151.13269858 -90.02732113 1153.78474086 -85.125 1156.4375 C-84.12879639 1156.97681152 -83.13259277 1157.51612305 -82.10620117 1158.07177734 C-79.07096144 1159.71481528 -76.03551413 1161.35746907 -73 1163 C-61.32469408 1169.31756277 -49.65134683 1175.63833107 -38 1182 C-30.04602451 1186.34136385 -22.08873076 1190.67655303 -14.125 1195 C-13.13242187 1195.54011719 -12.13984375 1196.08023438 -11.1171875 1196.63671875 C-9.25533927 1197.64649163 -7.38540852 1198.64154644 -5.5065918 1199.61938477 C-3 1201 -3 1201 -0.97192383 1202.48803711 C1.13046695 1203.92826615 2.46448023 1204.66592814 5 1205 C9.57010309 1203.53528517 13.50351258 1201.06999138 17.5625 1198.5625 C18.76503429 1197.85225421 19.96949543 1197.14526158 21.17578125 1196.44140625 C23.62927811 1195.00479751 26.07243294 1193.55271957 28.50830078 1192.08642578 C33.44726682 1189.1211526 38.47472064 1186.31559465 43.5 1183.5 C45.37529756 1182.43802527 47.25029355 1181.37551787 49.125 1180.3125 C56.70951219 1176.0256018 64.33328882 1171.80960235 71.953125 1167.5859375 C79.15458387 1163.59060758 86.33608132 1159.56222204 93.5 1155.5 C102.95366878 1150.13940011 112.44797817 1144.85462749 121.953125 1139.5859375 C129.15458387 1135.59060758 136.33608132 1131.56222204 143.5 1127.5 C152.95366878 1122.13940011 162.44797817 1116.85462749 171.953125 1111.5859375 C179.15458455 1107.5906072 186.33604504 1103.56215879 193.5 1099.5 C201.7686475 1094.81222311 210.06308686 1090.17312532 218.375 1085.5625 C228.49171897 1079.94954457 228.49171897 1079.94954457 238.6015625 1074.32421875 C240.20004028 1073.43416138 240.20004028 1073.43416138 241.83081055 1072.52612305 C243.92346952 1071.3533248 246.01101671 1070.17135274 248.09301758 1068.97973633 C252.9196594 1066.22260037 257.72517639 1063.61791925 262.78515625 1061.3125 C264.12610352 1060.65942871 264.12610352 1060.65942871 265.49414062 1059.99316406 C268.0625 1058.75 268.0625 1058.75 270.51757812 1057.78027344 C273.18174378 1056.44111134 274.32209044 1055.48551888 276 1053 C276.26127213 1050.34745112 276.32579422 1047.99358707 276.23252869 1045.35025024 C276.21139319 1044.16989966 276.21139319 1044.16989966 276.18983072 1042.96570361 C276.15725642 1041.23171527 276.11732067 1039.49785391 276.07109141 1037.76417589 C275.99865315 1034.94763164 275.95106612 1032.13163453 275.91017342 1029.31446457 C275.81278594 1022.78392611 275.68505423 1016.25411677 275.55688477 1009.72412109 C275.50910217 1007.22482576 275.46146851 1004.72552757 275.41397095 1002.22622681 C275.29865132 996.17932511 275.1817387 990.13245619 275.06404395 984.08560042 C274.92615231 976.99783617 274.79005597 969.91003775 274.65399467 962.82223816 C274.41034274 950.13325434 274.16498667 937.44430404 273.91870117 924.75537109 C273.68163131 912.54120494 273.44591242 900.32701368 273.21166992 888.11279297 C272.95511422 874.73519158 272.69781245 861.35760493 272.43925327 847.9800421 C272.41143117 846.5405341 272.38360917 845.1010261 272.35578728 843.6615181 C272.34210744 842.95378769 272.3284276 842.24605729 272.31433322 841.5168805 C272.23302014 837.30828585 272.15199462 833.09968579 272.07126689 828.89107987 C272.03194781 826.84237578 271.9925101 824.79367401 271.9530651 822.74497235 C271.90165464 820.07327157 271.85088261 817.40156097 271.80040866 814.72984207 C271.67940083 808.380768 271.54956412 802.03214946 271.39820194 795.68372154 C271.16499555 785.67562341 270.9422935 775.68421976 271.11234409 765.67352474 C271.17377256 761.92950212 271.19207247 758.18584155 271.20695865 754.44138265 C271.23681537 751.97072863 271.335434 749.50964147 271.43745518 747.0411129 C271.6613331 739.7971543 271.6613331 739.7971543 268.73410308 733.35103452 C263.19081869 727.86761958 256.23345877 724.04196674 248.98046875 721.31640625 C241.59262768 718.37771603 235.03928535 714.62603752 228.3125 710.375 C226.28360161 709.1449946 224.2510294 707.92102892 222.21484375 706.703125 C221.20405762 706.09791016 220.19327148 705.49269531 219.15185547 704.86914062 C212.47981087 700.91242696 205.74656196 697.06128052 199.02001953 693.19824219 C192.98312851 689.72901657 186.97710448 686.22378853 181.02197266 682.6159668 C174.47014694 678.65730939 167.85703492 674.80296507 161.25 670.9375 C150.53584911 664.66819862 139.84503063 658.36154965 129.17138672 652.0234375 C120.31314983 646.76761052 111.42709573 641.5605516 102.5352478 636.36187744 C94.0924638 631.42367446 85.68805695 626.42672327 77.3125 621.375 C67.62405537 615.53229689 57.85357914 609.84453584 48.04199219 604.21142578 C42.35051641 600.94146776 36.67805395 597.64876497 31.0625 594.25 C25.28263038 590.75535051 19.46516011 587.33048397 13.625 583.9375 C12.36441772 583.20225098 12.36441772 583.20225098 11.07836914 582.45214844 C10.30227295 582.00258789 9.52617676 581.55302734 8.7265625 581.08984375 C8.03127441 580.68628662 7.33598633 580.28272949 6.61962891 579.86694336 C3.4501019 578.17038165 1.73321554 580.23051625 -1.23828125 581.9375 Z M-625 1013 C-625.05926392 1054.57838428 -624.86519684 1096.15126224 -624.31620121 1137.72628784 C-624.16114038 1149.61581862 -624.03903997 1161.50404324 -623.99145508 1173.39453125 C-623.94937413 1183.89248095 -623.84821885 1194.38790049 -623.67563623 1204.88454628 C-623.58682646 1210.40600788 -623.52674549 1215.92423219 -623.53819466 1221.44647217 C-623.54797896 1226.61102267 -623.47842873 1231.76848512 -623.34843636 1236.93135071 C-623.31476249 1238.81680695 -623.30966396 1240.7030347 -623.33599472 1242.58860779 C-623.69037024 1252.38973133 -623.69037024 1252.38973133 -619.33337283 1260.71797562 C-615.24633848 1263.83356022 -610.8055001 1266.02150192 -606.10533702 1268.05599976 C-602.99120017 1269.45233009 -600.13012619 1271.16765019 -597.19921875 1272.9140625 C-595.02927832 1274.15215086 -592.85869319 1275.38910988 -590.6875 1276.625 C-589.48886311 1277.30847243 -588.29029738 1277.99206968 -587.09179688 1278.67578125 C-584.62055002 1280.08543528 -582.149009 1281.49457137 -579.67724609 1282.90332031 C-574.36199922 1285.93323389 -569.05054824 1288.96978764 -563.73892212 1292.00604248 C-560.82611439 1293.67098602 -557.91304348 1295.33546898 -555 1297 C-553.83333208 1297.66666448 -552.66666541 1298.33333114 -551.5 1299 C-550.9225 1299.33 -550.345 1299.66 -549.75 1300 C-488.50000004 1334.99999998 -488.50000004 1334.99999998 -486.75003052 1335.99998474 C-485.58326463 1336.66670665 -484.41649624 1337.33342418 -483.24972534 1338.00013733 C-480.33455622 1339.66592284 -477.41943053 1341.33178427 -474.50439453 1342.99780273 C-469.23670663 1346.00832394 -463.96870936 1349.01829675 -458.69908142 1352.02542114 C-456.34201175 1353.37052353 -453.98513526 1354.7159641 -451.62832642 1356.06152344 C-449.89186356 1357.05287257 -448.15528294 1358.04401542 -446.41870117 1359.03515625 C-440.43491364 1362.45373667 -434.45950431 1365.88587598 -428.49609375 1369.33984375 C-427.88836121 1369.69160172 -427.28062866 1370.04335968 -426.65447998 1370.40577698 C-423.73720329 1372.09455211 -420.82138004 1373.78570603 -417.90771484 1375.48071289 C-416.88242676 1376.07489014 -415.85713867 1376.66906738 -414.80078125 1377.28125 C-413.89497314 1377.80783203 -412.98916504 1378.33441406 -412.0559082 1378.87695312 C-410.24417431 1380.07989873 -410.24417431 1380.07989873 -409 1380 C-408.45171145 1349.53736689 -408.02737579 1319.07540702 -407.77443209 1288.60898747 C-407.74441752 1285.006895 -407.71335355 1281.40481228 -407.68164062 1277.80273438 C-407.67219745 1276.72713565 -407.67219745 1276.72713565 -407.6625635 1275.62980767 C-407.55831245 1264.04002408 -407.36920015 1252.45311668 -407.14833289 1240.86503582 C-406.92335867 1228.9615975 -406.79048253 1217.05965787 -406.74187613 1205.15418112 C-406.7119806 1198.4711803 -406.63752099 1191.7933953 -406.46247864 1185.1124382 C-404.14172509 1159.22736249 -404.14172509 1159.22736249 -411.34379578 1135.43401337 C-416.8693529 1130.22398053 -422.8744266 1127.6922272 -430.153615 1125.81237888 C-434.17183902 1124.66554866 -437.38170072 1122.68580802 -440.84375 1120.40625 C-441.95145752 1119.7563208 -443.05916504 1119.1063916 -444.20043945 1118.43676758 C-445.28929443 1117.79763428 -446.37814941 1117.15850098 -447.5 1116.5 C-460.3209254 1108.97868218 -473.15726494 1101.48402053 -486 1094 C-499.46458548 1086.15360017 -512.92028551 1078.29238763 -526.36239624 1070.40756226 C-534.56862537 1065.59418056 -542.78023777 1060.79025174 -551 1056 C-559.22114614 1051.20894175 -567.43412479 1046.4041781 -575.64172363 1041.58996582 C-585.50727792 1035.80335778 -595.37443272 1030.019508 -605.25 1024.25 C-606.20712891 1023.68990234 -607.16425781 1023.12980469 -608.15039062 1022.55273438 C-609.05466797 1022.02486328 -609.95894531 1021.49699219 -610.890625 1020.953125 C-611.66438477 1020.50098633 -612.43814453 1020.04884766 -613.23535156 1019.58300781 C-615.70430037 1018.16931441 -618.18511136 1016.78141394 -620.67279053 1015.40106201 C-621.48315639 1014.95128368 -622.29352226 1014.50150536 -623.12844467 1014.03809738 C-623.74605793 1013.69552525 -624.36367119 1013.35295311 -625 1013 Z " fill="#B71C34" transform="translate(826,21)"/>
</svg>
